<svg xmlns="http://www.w3.org/2000/svg" viewBox="0 0 1600 900" role="img" aria-labelledby="t d"><title id="t">Premium electric vehicle illustration</title><desc id="d">A dark premium electric sedan illustration used as demo artwork.</desc><defs><linearGradient id="bg" x1="0" y1="0" x2="1" y2="1"><stop stop-color="#090909"/><stop offset="1" stop-color="#282828"/></linearGradient><linearGradient id="car" x1="0" y1="0" x2="1" y2="0"><stop stop-color="#fff"/><stop offset=".55" stop-color="#d9d9d9"/><stop offset="1" stop-color="#888"/></linearGradient><radialGradient id="glow"><stop stop-color="#ef4444" stop-opacity=".5"/><stop offset="1" stop-color="#ef4444" stop-opacity="0"/></radialGradient></defs><rect width="1600" height="900" fill="url(#bg)"/><circle cx="1280" cy="230" r="330" fill="url(#glow)"/><path d="M285 585c45-76 133-111 275-128 135-16 225-107 348-122 179-22 298 48 405 153 46 7 95 25 130 54 29 24 31 72-4 93-35 22-84 31-146 33H393c-111 0-163-24-142-83 7-19 18-37 34-53z" fill="url(#car)"/><path d="M620 450c78-75 167-110 283-118 122-8 222 35 307 119H620z" fill="#161616" opacity=".92"/><path d="M785 444l76-93c31-5 64-7 98-5l91 98H785z" fill="#313131"/><ellipse cx="535" cy="661" rx="93" ry="93" fill="#111"/><ellipse cx="535" cy="661" rx="50" ry="50" fill="#777"/><ellipse cx="1225" cy="661" rx="93" ry="93" fill="#111"/><ellipse cx="1225" cy="661" rx="50" ry="50" fill="#777"/><rect x="1265" y="526" width="137" height="13" rx="6" fill="#ef4444"/><text x="90" y="120" fill="#fff" font-family="Arial, sans-serif" font-size="34" opacity=".6">PORTFOLIO DEMO ARTWORK</text></svg>
